<svg width="20" height="20" viewBox="0 0 20 20" fill="none" xmlns="http://www.w3.org/2000/svg">
    <path
        d="M8.6955 8.314V6.937C8.6955 6.93191 8.69548 6.92623 8.69546 6.92C8.69435 6.61761 8.68842 5 10.8185 5H12.3535V6.753H11.2255C11.0015 6.753 10.7755 6.984 10.7755 7.157V8.307H12.3515C12.2885 9.19 12.1575 9.997 12.1575 9.997H10.7675V15H8.6955V9.997H7.6875V8.314H8.6955Z"
        fill="white"/>
    <path
        fill-rule="evenodd"
        clip-rule="evenodd"
        d="M20 10C20 15.5228 15.5228 20 10 20C4.47715 20 0 15.5228 0 10C0 4.47715 4.47715 0 10 0C15.5228 0 20 4.47715 20 10ZM18.7 10C18.7 14.8049 14.8049 18.7 10 18.7C5.19512 18.7 1.3 14.8049 1.3 10C1.3 5.19512 5.19512 1.3 10 1.3C14.8049 1.3 18.7 5.19512 18.7 10Z"
        fill="white"/>
</svg>
