<svg width="20" height="20" viewBox="0 0 20 20" fill="none" xmlns="http://www.w3.org/2000/svg">
    <path
        fill-rule="evenodd"
        clip-rule="evenodd"
        d="M10 18.7C14.8049 18.7 18.7 14.8049 18.7 10C18.7 5.19512 14.8049 1.3 10 1.3C5.19512 1.3 1.3 5.19512 1.3 10C1.3 14.8049 5.19512 18.7 10 18.7ZM10 20C15.5228 20 20 15.5228 20 10C20 4.47715 15.5228 0 10 0C4.47715 0 0 4.47715 0 10C0 15.5228 4.47715 20 10 20Z"
        fill="white"/>
    <path
        d="M11.603 9.733L9.357 8.685C9.161 8.594 9 8.696 9 8.913V10.887C9 11.104 9.161 11.206 9.357 11.115L11.602 10.067C11.799 9.975 11.799 9.825 11.603 9.733ZM10 13.8C5.086 13.8 5 13.357 5 9.9C5 6.443 5.086 6 10 6C14.914 6 15 6.443 15 9.9C15 13.357 14.914 13.8 10 13.8Z"
        fill="white"/>
</svg>
